<svg id="Livello_1" data-name="Livello 1" xmlns="http://www.w3.org/2000/svg" viewBox="0 0 1024 1024"><defs><style>.cls-1{fill:#fefefe;}.cls-2{fill:#0d14a4;}.cls-3{fill:#0e14a4;}.cls-4{fill:#0d15a3;}.cls-5{fill:#0d15a2;}.cls-6{fill:#161a7a;}.cls-7{fill:#da4f2b;}</style></defs><path class="cls-1" d="M.29,937.83Q.29,473.52.1,9.19C.09,1.69,1.79,0,9.28,0Q254.67.38,500.05.19a2.83,2.83,0,0,1-.14,3.25c-5.43,4.68-7.3,10.59-7.18,17.74.28,17.29.08,34.59.09,51.88,0,3.33-.12,6.67,1.48,9.74,3.13,6.67,8.36,9.36,15.41,7.4s9.48-7.6,9.51-14.53c.06-18.87-.32-37.75.18-56.6C519.61,11.3,513,7,512.05.19Q763.93.19,1015.81,0c6.85,0,8.19,1.34,8.19,8.19q-.33,503.81,0,1007.61c0,6.85-1.34,8.24-8.19,8.2-64-.34-127.94-.2-191.91-.2.72-5.74,5.92-5.57,9.63-6.9,52.7-18.8,106-35.78,158.8-54.39,3.76-1.32,7.74-2.2,11.1-4.43,5.57-3.68,8.17-8.93,6.23-15.46s-6.75-9.7-13.5-9.82c-4.07-.08-7.84,1.38-11.66,2.59-18.42,5.82-36.47,12.75-54.78,18.88-12,4-14.11,2.91-18.47-9.14-6.34-17.54-12.16-35.27-18.17-52.92-21.35-62.76-43.72-125.16-64.88-188-4.26-12.63-9.28-25-13.23-37.72-3.77-12.18-3.62-13,7.56-18.7C854.18,631.73,880,609,897.8,578.32c31.62-54.4,34.57-111.15,9.69-168.78-36.44-84.38-74.28-168.16-111.2-252.33-5.74-13.07-12.4-15.75-26.46-10.9-82.16,28.34-164.69,55.63-246.73,84.34-11.24,3.93-21.62,3.91-33,.09-79.87-26.85-159.29-55.05-239.38-81.28-3.48-1.14-6.91-2.45-10.46-3.36-12.46-3.21-17.73-1-23.4,10.59-16.7,34.11-31.22,69.22-46.7,103.88-21.74,48.65-43,97.52-64.45,146.29-24.39,55.36-23.38,110.21,4.4,163.79,17.3,33.37,43.64,58.51,77.14,75.9,14.07,7.31,14.2,7.37,9.09,22.2-28.22,81.87-56.2,163.82-85,245.5-3.53,10-6.85,20.17-10.24,30.28-4.47,13.32-5.84,14-19.57,9.49C63.81,948.23,46.2,942.08,28.59,936c-8.71-3-16.66-4.47-24.5,1.64A3.75,3.75,0,0,1,.29,937.83Z" transform="translate(0 0)"/><path class="cls-1" d="M807.91,1023.8H202.19c-.68-2.31.95-3.67,2.09-5.26,8.24-11.53,5.62-20.58-8-25.38-19.16-6.74-38.46-13.1-57.67-19.73-15.06-5.19-15.5-6.13-10.23-21.58,31.26-91.73,63.69-183.06,95-274.79,4.51-13.23,5.93-13.95,19.58-11.55,97.35,17.12,186.2-43.57,209-134.42q23.33-93,45.89-186.28c1.62-6.71.58-18.32,8.07-18.49,7.92-.18,6.82,11.39,8.39,18,14.25,59.95,30,119.52,44,179.53C571,578.46,601.57,619.74,650.67,647c20,11.12,41.76,17.12,64.42,20.27,19.7,2.75,39.15,1.37,58.46-2.52,8.29-1.68,11.63,2.85,14,9.26,6,16.23,11.36,32.72,17,49.08q39.66,114.21,78.93,228.54c.43,1.26.87,2.52,1.26,3.8,3.25,10.67,2.48,12.76-7.86,16.52-18.15,6.58-36.6,12.32-54.75,18.94-2.5.91-5.08,1.61-7.55,2.62-11.41,4.69-14.24,12-8.85,23C807,1018.78,809,1020.83,807.91,1023.8Z" transform="translate(0 0)"/><path class="cls-2" d="M807.91,1023.8c-2.34-3.42-5.24-6.59-6.91-10.31-4.09-9.06,1.38-18.46,12.26-22.17,21.79-7.42,43.47-15.22,65.4-22.22,6.45-2.05,7.14-4.76,5.13-10.49q-28-79.56-55.61-159.22c-14.09-40.59-28.12-81.19-41.8-121.91-2.72-8.11-4.76-11.91-15.48-9.94-99.54,18.28-191-42.87-214.76-142.12-15.89-66.43-32.51-132.7-49.45-201.65-5.3,12.1-6.74,22.66-9.27,32.84-15.06,60.55-27.8,121.77-45.51,181.53-21.94,74-73.84,117.45-149.83,130.78a151.71,151.71,0,0,1-66.25-2.59c-6.83-1.86-7.13,2.75-8.48,6.65-9.42,27.19-18.73,54.41-28.14,81.6Q163.95,856.37,128.5,958.11c-2.16,6.19-1.64,9.15,5.19,11.35,20.42,6.59,40.47,14.34,61,20.67,8.26,2.56,15,5.61,17.12,14.47s-3.71,14.12-9.58,19.2h-14C145,1012,103.05,996.08,60.6,981.87c-16.37-5.49-32.92-10.52-48.94-17.07-4.74-1.93-9.11-4-11.37-9v-18c8.55-8.61,17.63-8.61,28.76-4.17,18.75,7.47,38.22,13.1,57.29,19.78,5.84,2,8.79,1.22,11-5.22,21-61.17,42.25-122.21,63.4-183.31,11.49-33.19,22.58-66.52,34.57-99.52,2.91-8,2.17-11.42-5.87-15.45C118.29,614.28,79.25,543.28,87,464.23c2.92-29.87,15.62-56.65,27.56-83.61q48.28-109.12,96.62-218.24c.94-2.13,1.88-4.26,2.92-6.34,7.55-15.09,12.51-17.25,28.57-11.79q114.46,39,228.88,78c8.38,2.86,17,5.18,25.19,8.43s15.44,1.08,23.09-1.55q72.54-25,145.17-49.67c34.66-11.84,69.41-23.41,104-35.55,15.67-5.5,23.51-1.61,29.34,11.81,23.38,53.83,47.28,107.44,71,161.13,13.5,30.56,26.87,61.17,40.57,91.63,36.4,81,9.83,177.87-63,228.12a147.77,147.77,0,0,1-26.52,14.83c-6.43,2.69-6.39,5.52-4.48,11Q843.64,741.64,871,821c14.55,41.91,29.27,83.77,43.45,125.81,2.56,7.59,5.15,8.64,12.64,5.81C947.18,945,967.64,938.5,988,931.81c12.39-4.07,20.85-.48,24.32,9.79,3.12,9.24-1.69,17.44-13.69,21.54-49.12,16.81-98.36,33.26-147.47,50.08-9.21,3.15-19,5.06-27.27,10.58Z" transform="translate(0 0)"/><path class="cls-1" d="M.29,955.83c17,10.57,36.51,14.63,55.06,21.11,43.63,15.25,87.49,29.85,131.23,44.77.69.24,1.09,1.38,1.62,2.09-59.74,0-119.48-.1-179.22.15-6.54,0-9.27-.49-9-8.39C.82,995.68.29,975.74.29,955.83Z" transform="translate(0 0)"/><path class="cls-3" d="M499.08,1.93l1-1.74h12c7.86,4.71,10.71,11.54,10.46,20.73-.51,18.86-.31,37.74-.18,56.61.06,8.5-4.07,14.35-11.78,16.22s-15.26.38-18.67-8.57c-1.77-23.27-.38-46.58-.73-69.87C491.06,9.33,496.51,6.44,499.08,1.93Z" transform="translate(0 0)"/><path class="cls-4" d="M564.28,109.21c.69-5.47,2.75-10.1,7.08-13.77,16.48-14,32.72-28.23,49.33-42,8.94-7.43,18.14-6.63,24.57,1.28,6.09,7.49,5.37,16.59-2.85,23.78-16.5,14.44-33.35,28.49-50.12,42.62-5.56,4.68-11.84,5.7-18.49,2.47C567.88,120.67,565.45,115.36,564.28,109.21Z" transform="translate(0 0)"/><path class="cls-5" d="M379.73,48.53a22,22,0,0,1,11.66,5.14C407.56,67.47,424,81,440,94.94c9,7.77,10,16.77,3.56,24.38-6.72,7.93-16.23,8.19-25.4.4C402,106,385.89,92.05,369.71,78.24c-6-5.13-7.78-11.57-5.3-18.84C366.82,52.34,372.66,49.4,379.73,48.53Z" transform="translate(0 0)"/><path class="cls-6" d="M499.08,1.93c-12.27,18.23-5.4,38.78-6.93,58.3-.65,8.27-.22,16.63-.27,25-2.86-2.21-2-5.44-2-8.25-.1-19.79,0-39.59-.06-59.38C489.81,10.48,491.69,4.59,499.08,1.93Z" transform="translate(0 0)"/><path class="cls-7" d="M794.27,420.63c4.52,6.83,10.67,9,19,9.28,21.3.82,42.57,1.12,63.84.24,6.34-.26,8,3.37,9.44,8,9.48,31.64,9.7,63.33-.95,94.62Q864,596.33,802.45,624.12c-20.35,9.2-41.75,14.86-63.58,14.75-31-.15-60.3-8.07-86.62-26-34.43-23.44-55-55.57-64.3-95.75-5.53-23.88-11.83-47.6-18.14-71.3-3.74-14-2.89-15.24,11.41-15.22,52.6.07,105.2-.13,157.8,0,9,0,16-2.88,20.68-10.76C771.35,414.75,782.83,416.83,794.27,420.63Z" transform="translate(0 0)"/><path class="cls-7" d="M240.61,426.63c7.39,3.66,15.44,3.84,23.34,3.84q85.86,0,171.72-.43c7.67,0,10.22,1.47,7.73,10.4-8.31,29.83-14.5,60.25-23.07,90-14.33,49.7-47.88,82.18-95.62,99.85-19.88,7.36-41.29,10.94-62.48,8.16-58.43-7.65-104-35.35-129.63-90C116,513,113.84,475.89,126,438.21c1.85-5.78,4.44-7.85,10.47-7.68,13.3.35,26.62-.13,39.93,0,7.36.05,14.58-.35,21.56-2.88C212,422.9,226.33,424.67,240.61,426.63Z" transform="translate(0 0)"/><path class="cls-1" d="M240.61,426.63c-14.14,4.38-28.44,1.87-42.7,1,4.91-6.27,8.44-12.59,3.86-20.85-4.26-7.68-10.87-8.65-18.62-8.4-10.65.33-21.32,0-32,.13-5.44.07-8.08-.68-5.17-7.19q38.4-86.22,76.38-172.61c4.68-10.6,9.93-21,13.88-31.87,2.87-7.87,6.57-8,13.72-5.51,40.82,14.28,81.82,28.06,122.79,41.91,34.06,11.51,68.1,23.07,102.28,34.21,8.64,2.82,11.4,6.4,8.86,16-10.14,38.41-19.54,77-28.58,115.73-1.74,7.45-4.76,9.37-12,9.34-63-.27-125.91-.08-188.86-.32-7.83,0-14.27,2.14-17.31,9.09C234.32,413.9,234.61,421.06,240.61,426.63Z" transform="translate(0 0)"/><path class="cls-1" d="M794.27,420.63l-34.57-.81c1.4-16-3.28-21.26-19.2-21.29-57.3-.11-114.6-.3-171.9-.11-7.23,0-10.06-1.77-11.8-9.35Q543.08,329,527.68,269.34c-1.57-6.14-.39-7.83,5.06-9.67,33.09-11.17,66-22.73,99.09-34,42-14.37,84.17-28.54,126.21-43,13.77-4.72,13.71-5,19.64,8.5,29.39,66.65,58.64,133.37,88.32,199.89,3.28,7.33.81,7.56-5.2,7.51q-26.49-.24-53,.12c-8.94.13-17.73,9.79-13.17,13.83C799.7,417,795.41,418.07,794.27,420.63Z" transform="translate(0 0)"/></svg>